<?xml version="1.0" encoding="utf-8"?>
<!-- Generator: Adobe Illustrator 18.1.1, SVG Export Plug-In . SVG Version: 6.00 Build 0)  -->
<svg version="1.1" id="レイヤー_1" xmlns="http://www.w3.org/2000/svg" xmlns:xlink="http://www.w3.org/1999/xlink" x="0px"
	 y="0px" viewBox="0 0 98.8 83.9" enable-background="new 0 0 98.8 83.9" xml:space="preserve">
<g>
	<path fill="#FFFFFF" stroke="#FFFFFF" stroke-width="0.2" stroke-miterlimit="10" d="M0.1,0.6c0-0.1,0.1-0.2,0.2-0.2h2.1
		c0.1,0,0.2,0.1,0.2,0.2v6.9l5.5-6.9c0.1-0.1,0.2-0.2,0.3-0.2h2.4c0.1,0,0.2,0.2,0.1,0.3L6.5,6.1l5,8.6c0.1,0.2,0,0.3-0.2,0.3H9
		c-0.2,0-0.2,0-0.3-0.2L4.9,8.1l-2.2,2.7v4c0,0.1-0.1,0.2-0.2,0.2H0.3c-0.1,0-0.2-0.1-0.2-0.2V0.6z"/>
	<path fill="#FFFFFF" stroke="#FFFFFF" stroke-width="0.2" stroke-miterlimit="10" d="M13.6,11.7c-0.3-0.9-0.4-1.7-0.4-4
		s0.1-3.1,0.4-4c0.8-2.3,2.6-3.5,5.1-3.5c2.5,0,4.4,1.2,5.2,3.5c0.3,0.9,0.4,1.7,0.4,4s-0.1,3.1-0.4,4c-0.7,2.3-2.6,3.5-5.2,3.5
		C16.3,15.2,14.4,14,13.6,11.7z M21.5,11c0.2-0.5,0.3-1.3,0.3-3.4c0-2.1-0.1-2.8-0.3-3.4c-0.4-1.2-1.3-1.9-2.7-1.9
		c-1.4,0-2.3,0.7-2.7,1.9c-0.2,0.5-0.3,1.3-0.3,3.4c0,2.1,0.1,2.8,0.3,3.4c0.4,1.2,1.3,1.9,2.7,1.9C20.2,13,21.1,12.2,21.5,11z"/>
	<path fill="#FFFFFF" stroke="#FFFFFF" stroke-width="0.2" stroke-miterlimit="10" d="M35.4,15c-0.2,0-0.3-0.1-0.3-0.2l-2.8-5.7
		h-2.5c-0.1,0-0.1,0-0.1,0.1v5.6c0,0.1-0.1,0.2-0.2,0.2h-2.1c-0.1,0-0.2-0.1-0.2-0.2V0.6c0-0.1,0.1-0.2,0.2-0.2H33
		c2.7,0,4.7,1.8,4.7,4.4c0,1.9-1.1,3.4-2.8,4l3.1,6c0.1,0.2,0,0.3-0.2,0.3H35.4z M35.1,4.7c0-1.3-0.9-2.1-2.2-2.1h-3.1
		c-0.1,0-0.1,0-0.1,0.1v3.9c0,0.1,0,0.1,0.1,0.1h3.1C34.2,6.8,35.1,6,35.1,4.7z"/>
	<path fill="#FFFFFF" stroke="#FFFFFF" stroke-width="0.2" stroke-miterlimit="10" d="M40.4,0.6c0-0.1,0.1-0.2,0.2-0.2h2.1
		c0.1,0,0.2,0.1,0.2,0.2v14.2c0,0.1-0.1,0.2-0.2,0.2h-2.1c-0.1,0-0.2-0.1-0.2-0.2V0.6z"/>
	<path fill="#FFFFFF" stroke="#FFFFFF" stroke-width="0.2" stroke-miterlimit="10" d="M49.3,15c-0.1,0-0.2-0.1-0.2-0.2V9l-4.2-8.5
		c0-0.1,0-0.2,0.2-0.2h2.2c0.1,0,0.2,0.1,0.3,0.2l2.9,5.7h0.1l2.9-5.7c0.1-0.2,0.1-0.2,0.3-0.2h2.1c0.2,0,0.2,0.1,0.2,0.2L51.6,9
		v5.8c0,0.1-0.1,0.2-0.2,0.2H49.3z"/>
	<path fill="#FFFFFF" stroke="#FFFFFF" stroke-width="0.2" stroke-miterlimit="10" d="M61.5,0.6c0-0.1,0.1-0.2,0.3-0.2h2
		c0.1,0,0.2,0.1,0.3,0.2l4.9,14.2c0,0.1,0,0.2-0.1,0.2h-2.1c-0.1,0-0.2-0.1-0.3-0.2l-1-2.8h-5.5l-1,2.8c0,0.2-0.1,0.2-0.3,0.2h-2.1
		c-0.1,0-0.2-0.1-0.1-0.2L61.5,0.6z M64.7,9.7L62.7,4h-0.1l-2,5.7H64.7z"/>
	<path fill="#FFFFFF" stroke="#FFFFFF" stroke-width="0.2" stroke-miterlimit="10" d="M70.9,0.6c0-0.1,0.1-0.2,0.2-0.2H73
		c0.2,0,0.3,0.1,0.4,0.2l4,9h0.1l3.9-9c0.1-0.2,0.2-0.2,0.4-0.2h1.9c0.1,0,0.2,0.1,0.2,0.2v14.2c0,0.1-0.1,0.2-0.2,0.2h-1.9
		c-0.1,0-0.2-0.1-0.2-0.2v-9h-0.1l-3.1,6.9C78.4,12.9,78.2,13,78,13h-1.2c-0.2,0-0.3-0.1-0.4-0.3l-3.1-6.9h-0.1v9
		c0,0.1-0.1,0.2-0.2,0.2h-1.9c-0.1,0-0.2-0.1-0.2-0.2V0.6z"/>
	<path fill="#FFFFFF" stroke="#FFFFFF" stroke-width="0.2" stroke-miterlimit="10" d="M90.9,0.6c0-0.1,0.1-0.2,0.3-0.2h2
		c0.1,0,0.2,0.1,0.3,0.2l4.9,14.2c0,0.1,0,0.2-0.1,0.2h-2.1c-0.1,0-0.2-0.1-0.3-0.2l-1-2.8h-5.5l-1,2.8c0,0.2-0.1,0.2-0.3,0.2h-2.1
		c-0.1,0-0.2-0.1-0.1-0.2L90.9,0.6z M94.1,9.7L92.2,4h-0.1l-2,5.7H94.1z"/>
</g>
<g>
	<path fill="#FFFFFF" stroke="#FFFFFF" stroke-width="0.2" stroke-miterlimit="10" d="M2.8,32.3c-0.1,0-0.1-0.1-0.1-0.1v-7.3
		c0-0.1,0-0.1-0.1-0.1H0.3c-0.1,0-0.1-0.1-0.1-0.1v-1.1c0-0.1,0.1-0.1,0.1-0.1h6.3c0.1,0,0.1,0.1,0.1,0.1v1.1c0,0.1-0.1,0.1-0.1,0.1
		H4.3c-0.1,0-0.1,0-0.1,0.1v7.3c0,0.1-0.1,0.1-0.1,0.1H2.8z"/>
	<path fill="#FFFFFF" stroke="#FFFFFF" stroke-width="0.2" stroke-miterlimit="10" d="M8,30.3c-0.2-0.5-0.2-1-0.2-2.4
		c0-1.4,0.1-1.9,0.2-2.4c0.5-1.4,1.6-2.1,3.1-2.1c1.5,0,2.7,0.7,3.1,2.1c0.2,0.5,0.2,1,0.2,2.4c0,1.4-0.1,1.9-0.2,2.4
		c-0.5,1.4-1.6,2.1-3.1,2.1C9.6,32.5,8.4,31.7,8,30.3z M12.7,29.9c0.1-0.3,0.2-0.8,0.2-2c0-1.3-0.1-1.7-0.2-2
		c-0.2-0.7-0.8-1.2-1.7-1.2c-0.9,0-1.4,0.4-1.6,1.2c-0.1,0.3-0.2,0.8-0.2,2c0,1.3,0.1,1.7,0.2,2c0.2,0.7,0.8,1.2,1.6,1.2
		C12,31.1,12.5,30.6,12.7,29.9z"/>
	<path fill="#FFFFFF" stroke="#FFFFFF" stroke-width="0.2" stroke-miterlimit="10" d="M22.4,32.3c-0.1,0-0.1-0.1-0.2-0.1l-1.7-6.1h0
		l-1.7,6.1c0,0.1-0.1,0.1-0.2,0.1h-1c-0.1,0-0.1-0.1-0.2-0.1l-2.2-8.6c0-0.1,0-0.1,0.1-0.1h1.2c0.1,0,0.1,0.1,0.2,0.1l1.4,6h0l1.7-6
		c0-0.1,0.1-0.1,0.2-0.1H21c0.1,0,0.1,0.1,0.2,0.1l1.7,6h0l1.4-6c0-0.1,0.1-0.1,0.2-0.1h1.2c0.1,0,0.1,0.1,0.1,0.1l-2.2,8.6
		c0,0.1-0.1,0.1-0.2,0.1H22.4z"/>
	<path fill="#FFFFFF" stroke="#FFFFFF" stroke-width="0.2" stroke-miterlimit="10" d="M26.9,23.6c0-0.1,0.1-0.1,0.1-0.1h1.2
		c0.1,0,0.2,0,0.2,0.1l3.6,6.1h0.1v-6.1c0-0.1,0.1-0.1,0.1-0.1h1.1c0.1,0,0.1,0.1,0.1,0.1v8.6c0,0.1-0.1,0.1-0.1,0.1h-1.2
		c-0.1,0-0.2,0-0.2-0.1l-3.6-6.1h-0.1v6.1c0,0.1-0.1,0.1-0.1,0.1H27c-0.1,0-0.1-0.1-0.1-0.1V23.6z"/>
	<path fill="#FFFFFF" stroke="#FFFFFF" stroke-width="0.2" stroke-miterlimit="10" d="M38.7,32.3c-0.1,0-0.1-0.1-0.1-0.1v-8.6
		c0-0.1,0.1-0.1,0.1-0.1H42c1.7,0,2.9,1.1,2.9,2.8c0,1.7-1.2,2.8-2.9,2.8h-1.8c-0.1,0-0.1,0-0.1,0.1v3.2c0,0.1-0.1,0.1-0.1,0.1H38.7
		z M43.4,26.2c0-0.8-0.6-1.4-1.5-1.4h-1.7c-0.1,0-0.1,0-0.1,0.1v2.6c0,0.1,0,0.1,0.1,0.1h1.7C42.8,27.6,43.4,27,43.4,26.2z"/>
	<path fill="#FFFFFF" stroke="#FFFFFF" stroke-width="0.2" stroke-miterlimit="10" d="M46.5,23.6c0-0.1,0.1-0.1,0.1-0.1h1.3
		c0.1,0,0.1,0.1,0.1,0.1v7.3c0,0.1,0,0.1,0.1,0.1h4.1c0.1,0,0.1,0.1,0.1,0.1v1.1c0,0.1-0.1,0.1-0.1,0.1h-5.5c-0.1,0-0.1-0.1-0.1-0.1
		V23.6z"/>
	<path fill="#FFFFFF" stroke="#FFFFFF" stroke-width="0.2" stroke-miterlimit="10" d="M56,23.6c0-0.1,0.1-0.1,0.2-0.1h1.2
		c0.1,0,0.1,0.1,0.2,0.1l3,8.6c0,0.1,0,0.1-0.1,0.1h-1.3c-0.1,0-0.1,0-0.2-0.1l-0.6-1.7H55l-0.6,1.7c0,0.1-0.1,0.1-0.2,0.1H53
		c-0.1,0-0.1-0.1-0.1-0.1L56,23.6z M57.9,29.1l-1.2-3.5h0l-1.2,3.5H57.9z"/>
	<path fill="#FFFFFF" stroke="#FFFFFF" stroke-width="0.2" stroke-miterlimit="10" d="M61.8,23.6c0-0.1,0.1-0.1,0.1-0.1h1.2
		c0.1,0,0.2,0,0.2,0.1l3.6,6.1H67v-6.1c0-0.1,0.1-0.1,0.1-0.1h1.1c0.1,0,0.1,0.1,0.1,0.1v8.6c0,0.1-0.1,0.1-0.1,0.1h-1.2
		c-0.1,0-0.2,0-0.2-0.1l-3.6-6.1h-0.1v6.1c0,0.1-0.1,0.1-0.1,0.1H62c-0.1,0-0.1-0.1-0.1-0.1V23.6z"/>
	<path fill="#FFFFFF" stroke="#FFFFFF" stroke-width="0.2" stroke-miterlimit="10" d="M70.5,23.6c0-0.1,0.1-0.1,0.1-0.1h1.2
		c0.1,0,0.2,0,0.2,0.1l3.6,6.1h0.1v-6.1c0-0.1,0.1-0.1,0.1-0.1H77c0.1,0,0.1,0.1,0.1,0.1v8.6c0,0.1-0.1,0.1-0.1,0.1h-1.2
		c-0.1,0-0.2,0-0.2-0.1L72,26.1h-0.1v6.1c0,0.1-0.1,0.1-0.1,0.1h-1.1c-0.1,0-0.1-0.1-0.1-0.1V23.6z"/>
	<path fill="#FFFFFF" stroke="#FFFFFF" stroke-width="0.2" stroke-miterlimit="10" d="M79.2,23.6c0-0.1,0.1-0.1,0.1-0.1h1.3
		c0.1,0,0.1,0.1,0.1,0.1v8.6c0,0.1-0.1,0.1-0.1,0.1h-1.3c-0.1,0-0.1-0.1-0.1-0.1V23.6z"/>
	<path fill="#FFFFFF" stroke="#FFFFFF" stroke-width="0.2" stroke-miterlimit="10" d="M82.8,23.6c0-0.1,0.1-0.1,0.1-0.1h1.2
		c0.1,0,0.2,0,0.2,0.1l3.6,6.1H88v-6.1c0-0.1,0.1-0.1,0.1-0.1h1.1c0.1,0,0.1,0.1,0.1,0.1v8.6c0,0.1-0.1,0.1-0.1,0.1h-1.2
		c-0.1,0-0.2,0-0.2-0.1l-3.6-6.1h-0.1v6.1c0,0.1-0.1,0.1-0.1,0.1h-1.1c-0.1,0-0.1-0.1-0.1-0.1V23.6z"/>
	<path fill="#FFFFFF" stroke="#FFFFFF" stroke-width="0.2" stroke-miterlimit="10" d="M91.2,27.9c0-1.4,0.1-1.9,0.2-2.4
		c0.5-1.4,1.6-2.1,3.2-2.1c1.7,0,2.7,0.9,3.1,1.9c0,0.1,0,0.1-0.1,0.2l-1.1,0.5c-0.1,0-0.1,0-0.2-0.1c-0.4-0.7-0.9-1.1-1.8-1.1
		c-0.9,0-1.4,0.4-1.7,1.2c-0.1,0.3-0.2,0.8-0.2,2c0,1.3,0.1,1.7,0.2,2c0.2,0.7,0.8,1.2,1.7,1.2c0.8,0,1.4-0.4,1.7-1.1
		c0.1-0.3,0.1-0.6,0.1-1.2c0-0.1,0-0.1-0.1-0.1h-1.5c-0.1,0-0.1-0.1-0.1-0.1v-1c0-0.1,0.1-0.1,0.1-0.1h2.9c0.1,0,0.1,0.1,0.1,0.1
		v0.8c0,0.7-0.1,1.5-0.2,2c-0.4,1.4-1.6,2.2-3.1,2.2c-1.6,0-2.7-0.7-3.2-2.1C91.3,29.8,91.2,29.3,91.2,27.9z"/>
	<path fill="#FFFFFF" stroke="#FFFFFF" stroke-width="0.2" stroke-miterlimit="10" d="M0.8,40.1C0.8,40,0.9,40,1,40h3.2
		c1.5,0,2.5,0.7,3,2c0.1,0.4,0.2,0.9,0.2,2.5c0,1.5-0.1,2-0.2,2.5c-0.4,1.3-1.4,2-3,2H1c-0.1,0-0.1-0.1-0.1-0.1V40.1z M2.5,47.5h1.3
		c1,0,1.6-0.3,1.8-1.1c0.1-0.2,0.2-0.7,0.2-1.9c0-1.3-0.1-1.7-0.2-1.9c-0.3-0.8-0.9-1.1-1.8-1.1H2.5c-0.1,0-0.1,0-0.1,0.1L2.5,47.5
		C2.4,47.4,2.4,47.5,2.5,47.5z"/>
	<path fill="#FFFFFF" stroke="#FFFFFF" stroke-width="0.2" stroke-miterlimit="10" d="M9,40.1C9,40,9,40,9.1,40h5.5
		c0.1,0,0.1,0.1,0.1,0.1v1.1c0,0.1-0.1,0.1-0.1,0.1h-4.1c-0.1,0-0.1,0-0.1,0.1v2.2c0,0.1,0,0.1,0.1,0.1H14c0.1,0,0.1,0.1,0.1,0.1
		v1.1c0,0.1-0.1,0.1-0.1,0.1h-3.4c-0.1,0-0.1,0-0.1,0.1v2.3c0,0.1,0,0.1,0.1,0.1h4.1c0.1,0,0.1,0.1,0.1,0.1v1.1
		c0,0.1-0.1,0.1-0.1,0.1H9.1C9,48.9,9,48.8,9,48.7V40.1z"/>
	<path fill="#FFFFFF" stroke="#FFFFFF" stroke-width="0.2" stroke-miterlimit="10" d="M15.9,47.8c-0.1-0.1-0.1-0.1,0-0.2l0.8-0.9
		c0.1-0.1,0.1-0.1,0.2,0c0.6,0.5,1.4,0.9,2.4,0.9c1.1,0,1.7-0.5,1.7-1.3c0-0.6-0.4-1.1-1.6-1.2L18.9,45c-1.7-0.2-2.7-1.1-2.7-2.5
		c0-1.6,1.2-2.7,3-2.7c1.1,0,2.2,0.4,2.9,0.9c0.1,0.1,0.1,0.1,0,0.2l-0.6,1c-0.1,0.1-0.1,0.1-0.2,0c-0.7-0.5-1.4-0.7-2.1-0.7
		c-0.9,0-1.4,0.5-1.4,1.2c0,0.6,0.4,1,1.6,1.2l0.5,0.1c1.7,0.2,2.6,1,2.6,2.6c0,1.6-1.1,2.8-3.3,2.8C17.9,49,16.6,48.5,15.9,47.8z"
		/>
	<path fill="#FFFFFF" stroke="#FFFFFF" stroke-width="0.2" stroke-miterlimit="10" d="M24,40.1c0-0.1,0.1-0.1,0.1-0.1h1.3
		c0.1,0,0.1,0.1,0.1,0.1v8.6c0,0.1-0.1,0.1-0.1,0.1h-1.3c-0.1,0-0.1-0.1-0.1-0.1V40.1z"/>
	<path fill="#FFFFFF" stroke="#FFFFFF" stroke-width="0.2" stroke-miterlimit="10" d="M27.3,44.4c0-1.4,0.1-1.9,0.2-2.4
		c0.5-1.4,1.6-2.1,3.2-2.1c1.7,0,2.7,0.9,3.1,1.9c0,0.1,0,0.1-0.1,0.2l-1.1,0.5c-0.1,0-0.1,0-0.2-0.1c-0.4-0.7-0.9-1.1-1.8-1.1
		c-0.9,0-1.4,0.4-1.7,1.2c-0.1,0.3-0.2,0.8-0.2,2c0,1.3,0.1,1.7,0.2,2c0.2,0.7,0.8,1.2,1.7,1.2c0.8,0,1.4-0.4,1.7-1.1
		c0.1-0.3,0.1-0.6,0.1-1.2c0-0.1,0-0.1-0.1-0.1h-1.5c-0.1,0-0.1-0.1-0.1-0.1v-1c0-0.1,0.1-0.1,0.1-0.1h2.9c0.1,0,0.1,0.1,0.1,0.1
		v0.8c0,0.7-0.1,1.5-0.2,2c-0.4,1.4-1.6,2.2-3.1,2.2c-1.6,0-2.7-0.7-3.2-2.1C27.3,46.3,27.3,45.8,27.3,44.4z"/>
	<path fill="#FFFFFF" stroke="#FFFFFF" stroke-width="0.2" stroke-miterlimit="10" d="M35.7,40.1c0-0.1,0.1-0.1,0.1-0.1H37
		c0.1,0,0.2,0,0.2,0.1l3.6,6.1h0.1v-6.1c0-0.1,0.1-0.1,0.1-0.1h1.1c0.1,0,0.1,0.1,0.1,0.1v8.6c0,0.1-0.1,0.1-0.1,0.1H41
		c-0.1,0-0.2,0-0.2-0.1l-3.6-6.1h-0.1v6.1c0,0.1-0.1,0.1-0.1,0.1h-1.1c-0.1,0-0.1-0.1-0.1-0.1V40.1z"/>
	<path fill="#FFFFFF" stroke="#FFFFFF" stroke-width="0.2" stroke-miterlimit="10" d="M47.4,48.9c-0.1,0-0.1-0.1-0.1-0.1v-8.6
		c0-0.1,0.1-0.1,0.1-0.1h3.3c1.7,0,2.9,1.1,2.9,2.8c0,1.7-1.2,2.8-2.9,2.8h-1.8c-0.1,0-0.1,0-0.1,0.1v3.2c0,0.1-0.1,0.1-0.1,0.1
		H47.4z M52.1,42.7c0-0.8-0.6-1.4-1.5-1.4h-1.7c-0.1,0-0.1,0-0.1,0.1V44c0,0.1,0,0.1,0.1,0.1h1.7C51.6,44.1,52.1,43.5,52.1,42.7z"/>
	<path fill="#FFFFFF" stroke="#FFFFFF" stroke-width="0.2" stroke-miterlimit="10" d="M60.1,48.9c-0.1,0-0.2,0-0.2-0.1l-1.7-3.5
		h-1.5c-0.1,0-0.1,0-0.1,0.1v3.4c0,0.1-0.1,0.1-0.1,0.1h-1.3c-0.1,0-0.1-0.1-0.1-0.1v-8.6c0-0.1,0.1-0.1,0.1-0.1h3.4
		c1.6,0,2.8,1.1,2.8,2.7c0,1.2-0.7,2.1-1.7,2.4l1.9,3.6c0.1,0.1,0,0.2-0.1,0.2H60.1z M59.9,42.6c0-0.8-0.5-1.3-1.4-1.3h-1.9
		c-0.1,0-0.1,0-0.1,0.1v2.4c0,0.1,0,0.1,0.1,0.1h1.9C59.4,43.9,59.9,43.4,59.9,42.6z"/>
	<path fill="#FFFFFF" stroke="#FFFFFF" stroke-width="0.2" stroke-miterlimit="10" d="M63.1,46.8c-0.2-0.5-0.2-1-0.2-2.4
		c0-1.4,0.1-1.9,0.2-2.4c0.5-1.4,1.6-2.1,3.1-2.1c1.5,0,2.7,0.7,3.1,2.1c0.2,0.5,0.2,1,0.2,2.4c0,1.4-0.1,1.9-0.2,2.4
		c-0.5,1.4-1.6,2.1-3.1,2.1C64.7,49,63.6,48.3,63.1,46.8z M67.9,46.4c0.1-0.3,0.2-0.8,0.2-2c0-1.3-0.1-1.7-0.2-2
		c-0.2-0.7-0.8-1.2-1.7-1.2c-0.9,0-1.4,0.4-1.6,1.2c-0.1,0.3-0.2,0.8-0.2,2c0,1.3,0.1,1.7,0.2,2c0.2,0.7,0.8,1.2,1.6,1.2
		C67.1,47.6,67.6,47.2,67.9,46.4z"/>
	<path fill="#FFFFFF" stroke="#FFFFFF" stroke-width="0.2" stroke-miterlimit="10" d="M70.7,47.7l1-0.7c0.1,0,0.1,0,0.2,0
		c0.2,0.3,0.7,0.5,1.2,0.5c0.9,0,1.5-0.6,1.5-1.8v-5.8c0-0.1,0.1-0.1,0.1-0.1h1.3c0.1,0,0.1,0.1,0.1,0.1v5.8c0,2-1.2,3.1-3.1,3.1
		c-1,0-1.9-0.5-2.3-1.1C70.6,47.9,70.6,47.8,70.7,47.7z"/>
	<path fill="#FFFFFF" stroke="#FFFFFF" stroke-width="0.2" stroke-miterlimit="10" d="M77.9,40.1c0-0.1,0.1-0.1,0.1-0.1h5.5
		c0.1,0,0.1,0.1,0.1,0.1v1.1c0,0.1-0.1,0.1-0.1,0.1h-4.1c-0.1,0-0.1,0-0.1,0.1v2.2c0,0.1,0,0.1,0.1,0.1h3.4c0.1,0,0.1,0.1,0.1,0.1
		v1.1c0,0.1-0.1,0.1-0.1,0.1h-3.4c-0.1,0-0.1,0-0.1,0.1v2.3c0,0.1,0,0.1,0.1,0.1h4.1c0.1,0,0.1,0.1,0.1,0.1v1.1
		c0,0.1-0.1,0.1-0.1,0.1H78c-0.1,0-0.1-0.1-0.1-0.1V40.1z"/>
	<path fill="#FFFFFF" stroke="#FFFFFF" stroke-width="0.2" stroke-miterlimit="10" d="M85.1,44.4c0-1.4,0.1-1.9,0.2-2.4
		c0.5-1.5,1.6-2.2,3.1-2.2c1.4,0,2.5,0.7,3,1.9c0,0.1,0,0.1-0.1,0.2l-1.1,0.5c-0.1,0-0.1,0-0.2-0.1c-0.3-0.6-0.8-1.2-1.7-1.2
		c-0.8,0-1.3,0.5-1.6,1.2c-0.1,0.4-0.2,0.7-0.2,2c0,1.3,0,1.7,0.2,2c0.2,0.7,0.7,1.2,1.6,1.2c0.9,0,1.4-0.5,1.7-1.2
		c0-0.1,0.1-0.1,0.2-0.1l1.1,0.5c0.1,0,0.1,0.1,0.1,0.2c-0.5,1.2-1.6,1.9-3,1.9c-1.5,0-2.6-0.7-3.1-2.2
		C85.1,46.3,85.1,45.8,85.1,44.4z"/>
	<path fill="#FFFFFF" stroke="#FFFFFF" stroke-width="0.2" stroke-miterlimit="10" d="M94.8,48.9c-0.1,0-0.1-0.1-0.1-0.1v-7.3
		c0-0.1,0-0.1-0.1-0.1h-2.3c-0.1,0-0.1-0.1-0.1-0.1v-1.1c0-0.1,0.1-0.1,0.1-0.1h6.3c0.1,0,0.1,0.1,0.1,0.1v1.1
		c0,0.1-0.1,0.1-0.1,0.1h-2.3c-0.1,0-0.1,0-0.1,0.1v7.3c0,0.1-0.1,0.1-0.1,0.1H94.8z"/>
</g>
<g>
	<g>
		<path fill="#FFFFFF" stroke="#FFFFFF" stroke-width="0.2" stroke-miterlimit="10" d="M7.9,83.4c-0.3,0-0.4-0.2-0.5-0.4L0.9,65.2
			C0.8,65,1,64.8,1.2,64.8H5c0.2,0,0.4,0.2,0.5,0.4l4.1,12h0.1l4-12c0.1-0.2,0.2-0.4,0.5-0.4h3.7c0.2,0,0.4,0.2,0.3,0.4L11.5,83
			c-0.1,0.2-0.2,0.4-0.5,0.4H7.9z"/>
		<path fill="#FFFFFF" stroke="#FFFFFF" stroke-width="0.2" stroke-miterlimit="10" d="M21.1,78.7c-0.4-1.3-0.6-2.5-0.6-4.6
			c0-2,0.2-3.3,0.6-4.6c1-3.2,3.9-5.1,7.6-5.1c3.7,0,6.5,1.9,7.6,5.1c0.4,1.3,0.6,2.5,0.6,4.6c0,2-0.2,3.3-0.6,4.6
			c-1,3.2-3.9,5.1-7.6,5.1C25,83.8,22.2,81.9,21.1,78.7z M32.2,77.5c0.3-1,0.4-1.8,0.4-3.4c0-1.6-0.1-2.4-0.4-3.4
			c-0.5-1.5-1.7-2.4-3.4-2.4c-1.7,0-2.9,0.9-3.5,2.4c-0.3,1-0.4,1.8-0.4,3.4c0,1.6,0.1,2.5,0.4,3.4c0.5,1.5,1.8,2.4,3.5,2.4
			C30.5,79.9,31.7,79,32.2,77.5z"/>
		<path fill="#FFFFFF" stroke="#FFFFFF" stroke-width="0.2" stroke-miterlimit="10" d="M46.5,83.6c-3.6,0-5-1.7-5-5.3V57.6
			c0-0.2,0.2-0.4,0.4-0.4h3.5c0.2,0,0.4,0.2,0.4,0.4V78c0,1.3,0.5,1.7,1.6,1.7h0.8c0.2,0,0.4,0.2,0.4,0.4v3.1c0,0.2-0.2,0.4-0.4,0.4
			H46.5z"/>
		<path fill="#FFFFFF" stroke="#FFFFFF" stroke-width="0.2" stroke-miterlimit="10" d="M52.4,79c0-0.2,0.2-0.4,0.4-0.4h3.8
			c0.2,0,0.4,0.2,0.4,0.4V83c0,0.2-0.2,0.4-0.4,0.4h-3.8c-0.2,0-0.4-0.2-0.4-0.4V79z"/>
		<path fill="#FFFFFF" stroke="#FFFFFF" stroke-width="0.2" stroke-miterlimit="10" d="M62.1,70.3c0-6.1,0.2-7.3,0.5-8.4
			c1-3.3,3.5-5.1,7.4-5.1c3.9,0,6.4,1.8,7.4,5.1c0.3,1.1,0.5,2.3,0.5,8.4s-0.2,7.3-0.5,8.4c-1.1,3.3-3.6,5.1-7.4,5.1
			c-3.9,0-6.4-1.8-7.4-5.1C62.2,77.6,62.1,76.4,62.1,70.3z M70,79.9c1.6,0,2.7-0.7,3.2-2.1c0.3-0.8,0.3-1.7,0.3-7.6
			c0-5.9-0.1-6.8-0.3-7.6c-0.5-1.4-1.6-2.1-3.2-2.1c-1.6,0-2.7,0.7-3.2,2.1c-0.3,0.8-0.3,1.7-0.3,7.6c0,5.9,0.1,6.8,0.3,7.6
			C67.3,79.2,68.4,79.9,70,79.9z"/>
		<path fill="#FFFFFF" stroke="#FFFFFF" stroke-width="0.2" stroke-miterlimit="10" d="M83.2,80.1c0-0.2,0-0.3,0.2-0.5l9.2-11.5
			c1-1.3,1.7-2.5,1.7-4c0-2-1.3-3.5-3.4-3.5c-2.1,0-3.3,1.3-3.5,3.3c0,0.2-0.2,0.3-0.4,0.3l-3.4-0.7c-0.2,0-0.3-0.2-0.3-0.5
			c0.3-3.1,2.8-6.3,7.7-6.3c4.9,0,7.7,3.2,7.7,7.3c0,2.3-0.9,4.3-2.4,6.1l-7.6,9.2v0.1h9.6c0.2,0,0.4,0.2,0.4,0.4V83
			c0,0.2-0.2,0.4-0.4,0.4H83.6c-0.2,0-0.4-0.2-0.4-0.4V80.1z"/>
	</g>
</g>
</svg>
