<?xml version="1.0" encoding="utf-8"?>
<!-- Generator: Adobe Illustrator 18.1.1, SVG Export Plug-In . SVG Version: 6.00 Build 0)  -->
<svg version="1.1" xmlns="http://www.w3.org/2000/svg" xmlns:xlink="http://www.w3.org/1999/xlink" x="0px" y="0px"
	 viewBox="0 0 489.4 275.2" enable-background="new 0 0 489.4 275.2" xml:space="preserve">
<g id="レイヤー_2" display="none">
	<rect x="0.5" y="0.5" display="inline" fill="#009FD0" stroke="#FFFFFF" stroke-miterlimit="10" width="488.4" height="274.2"/>
</g>
<g id="レイヤー_1">
	<g>
		<g>
			<path fill="#FFFFFF" d="M84.9,105.2c-3.5-3.8-7.8-7.2-13.2-9.6c-1.4,8.9-9.8,10.6-15,10.6c-8.3,0-14.6-4.9-14.6-9.9
				c0-4.8,5.4-9.3,14.6-9.3c2.4,0,4.6,0.1,6.8,0.3c0-2.6-0.1-5.4-0.1-8.4c-1.3,0.1-2.7,0.1-3.9,0.1c-10.4,0-14.5-2-14.5-4.8
				c0-2.1,2.2-4.6,4.5-6.4l5,1.4c-1.6,1-2.2,1.8-2.2,2.4c0,1.4,3.6,1.8,6,1.8c1.6,0,3.3-0.2,5-0.4c-0.1-3-0.1-6-0.2-9.2
				c-3.3,0.3-6.3,0.5-9,0.5c-5.1,0-9-0.6-12.3-1.8l-1-6.3c3.3,1.4,7,2.1,12,2.1c2.9,0,6.3-0.3,10.2-0.7c-0.1-3.7-0.1-7.4-0.1-10.9
				l8.8,0.1c-0.1,3.2-0.1,6.5-0.1,9.9c4.6-0.8,10-1.9,15.4-3.3l0.3,6.9c-5.9,1.1-11.1,1.9-15.6,2.5c0,2.9,0.1,5.9,0.1,8.8
				c4.4-1.1,9.1-2.6,13.2-4.2l0.4,7c-2.5,1-7.4,2.5-13.5,3.5c0.1,3.9,0.1,7.5,0.1,10.7c6.8,1.6,12.5,4.2,18,7.6L84.9,105.2z
				 M56.1,92.1c-3.9,0-7.7,1.2-7.7,3.7c0,2.5,3.8,3.7,7.1,3.7c6.2,0,7.7-3.3,8-6.3C59.7,92.2,57.6,92.1,56.1,92.1z"/>
			<path fill="#FFFFFF" d="M120.1,101.3c0.7,0,1.4,0,2.1,0c17.1,0,28.3-5.8,28.3-14.3c0-2.4-1.1-8.2-9.4-8.2
				c-7.8,0-14.2,5.2-16.9,9.6c-0.5,0.8-0.5,1.5-0.8,2.2l-8.9-0.1c1-5.6,3.4-14.8,5.5-24.2c-2,0.3-3.9,0.4-5.6,0.4
				c-2.4,0-4.4-0.3-6.4-0.7l-1-6.1c2.4,0.7,4.5,1.2,6.9,1.2c2,0,4.4-0.3,7.4-1.1c1-4.8,1.8-9.3,2.1-13.3l9.2,1.6
				c-0.7,3.1-1.6,6.5-2.4,9.9c4.8-1.6,11.2-3.9,16.2-6l1.2,7.8c-7.7,2.2-13.9,3.7-19,4.8c-1.8,7-3.4,12.8-3.6,13.7
				c6.8-3.8,13.1-5,17.9-5c2,0,16.9,0.1,16.9,13.9c0,11.7-13.4,19-34.5,19c-1.5,0-3.1-0.1-4.6-0.1L120.1,101.3z"/>
		</g>
	</g>
	<g>
		<g>
			<path fill="#FFFFFF" d="M224.3,181.2c10.7-0.9,24.5-6.9,24.5-22.8c0-12-8-18.8-18.8-18.9c-1.8,0-3.5,0.1-5.2,0.5l6.9,2.5
				c0.1,0.5,0.1,1.2,0.1,1.8c0,8.7-5.7,24.6-11.4,32.1c-2.3,3.1-5.1,4.7-7.8,4.7c-5,0-13.3-7.3-13.3-17.8c0-12.1,10.4-29,31.3-29
				c15.9,0,27.3,10.1,27.3,24.7c0,14.2-10.3,25.1-31.1,27.1L224.3,181.2z M206.1,161.7c0,6.2,4.2,10.1,6,10.1c0.7,0,1.4-0.4,1.9-1.1
				c3.7-4.9,9.4-18,9.4-28.1c0-0.7-0.1-1.6-0.1-2.3C210.2,143.7,206.1,154.6,206.1,161.7z"/>
		</g>
	</g>
	<g>
		<path fill="#FFFFFF" d="M255.4,68.7h-30.3v16l0.3,7.7v0.4c0,2.5-1.2,8.9-12.8,11c-2.8-4.6-8.9-6.9-14-7.4v-5.8
			c3.6,0.2,6.3,0.3,8.2,0.3c5,0,5.4-0.8,5.4-2.8V68.7H174l-2.9-8.1h17.4V37.1h12.9v23.5h11.3V30.2h13.1v12h14.5l7.7-5.5l8.7,7.2
			l-8.5,6.2h-22.4v10.6h21.3l7.6-5.2l9.4,7.1L255.4,68.7z M171.5,97.2c9.5-7.4,16.4-16.2,20.7-26l13.6,6.1
			c-7.3,9.7-18.2,19.2-29,24.9L171.5,97.2z M248.3,94.5c-14.6,22-40.8,28.6-73,29.2l-3.5-7.3c31.1-1.7,53-9.6,62.6-27.6L248.3,94.5z
			 M252.8,99.1c-4.6-8-12.6-16.7-20.3-22.4l5-4.5c8.8,3.5,19.2,9.7,25.9,14.9L252.8,99.1z"/>
	</g>
	<g>
		<path fill="#FFFFFF" d="M309.3,108.5c-2.7,0.5-6,0.9-9.4,0.9c-25.2,0-25.2-12.4-25.2-13.4c0-4.6,3.1-12.3,24.4-12.3
			c2.4,0,4.6,0.1,6.5,0.1c-1-1.4-2.6-4-4.3-7.2c-6.9,1.4-11.9,2-16,2c-4.1,0-7.3-0.6-10.7-1.6l-1.4-6.8c3.9,1.3,7.2,2.1,11.3,2.1
			c3.6,0,7.9-0.7,13.7-2.1c-1-2-2-3.9-2.9-6c-3.6,0.7-6.5,1-8.9,1c-3.5,0-6.3-0.7-9.4-1.8l-1.1-6.3c4.1,1.4,6.9,2.4,10.5,2.4
			c1.8,0,3.9-0.3,6.5-0.9c-1.6-3.9-2.9-7.4-3.5-10.1l8.2-1.1c0.4,2.6,1.4,5.8,2.7,9.4c2.9-0.8,6.5-1.9,9.8-3.2l1.6,6.5
			c-3.4,1-6.5,1.8-9.1,2.4c0.9,2,1.8,3.9,2.8,5.9c3.3-1,7.5-2.2,11.1-3.6l1.9,7.5c-3.6,1-6.8,1.8-9.7,2.4c4.8,8.6,5.9,10,10.6,13.6
			l-7.5,5.3c-1.4-1.1-2.6-1.8-4.3-2.4c-3.6-1.2-8-1.9-12.1-1.9c-7.8,0-12.4,2.7-12.4,5.6c0,6.2,13.9,6.4,15.2,6.4
			c4.5,0,9.2-0.7,13.5-1.8L309.3,108.5z"/>
		<path fill="#FFFFFF" d="M382.2,104.9c-1.2,0.1-2.4,0.2-3.7,0.2c-12,0-25-6.9-25-20.6c0-13.6,10.2-22.1,11.8-23.3
			c-8.8,1.4-17.9,3.4-26.5,6.1l-3.5-7.2c15.8-2.5,39.2-5.9,54.2-9l0.4,7.5c-0.7,0.1-1.5,0.1-2.2,0.1c-4.8,0.4-9.1,0.8-13.4,3.1
			c-8.1,4.4-13.1,11.9-13.1,19.5c0,10.1,8.6,14.4,18.9,14.4c1.9,0,3.9-0.1,6.1-0.5L382.2,104.9z M381.5,76.1
			c-1-3.7-2.7-8.9-4.6-11.6l3.3-1.2c2,1.8,5.8,6.6,7.3,9.7L381.5,76.1z M390.1,73.6c-1-3.7-2.7-7.6-4.6-10.3l3.3-1.2
			c1.8,1.5,6,5.4,7.4,8.5L390.1,73.6z"/>
	</g>
	<g>
		<path fill="#FFFFFF" d="M85,194.6v-54.4l-3.4,3.5h-3.4v15.9h-8.5v-1.8H58.4c-1,2.3-2.1,4.6-3.4,6.7l3.4,1h12.6l2.5-2.6l8,3.8
			l-2.5,2.8v24.4h-9.1v-2.6H57.4v3.4h-9.1l0.2-22c-2.1,2-4.4,4.1-7.1,6l-3.8-3.4c6.1-5.5,9.9-11.3,12.2-17.5h-6.3l-2.3-5.9h10.3
			c0.6-2.6,1-5.3,1.4-8.1H40.8l-2.1-5.9h14.6c0.1-2.7,0.2-5.4,0.2-8.3h-9.2l-2.3-5.9h28.3l2.6-2.6l7.6,3.5l-2.2,2.6v10.7h0.5l2.6-3
			l3.7,3.4v-17.7l9.5,2.6h9.5l2.6-2.5l8.4,5.5l-3,2.6l-8.3,18.1c4.3,4.8,10.1,11.2,10.1,20.9c0,5.4-1.4,16.5-14.4,17.2
			c-1.1-2.6-2.7-4.2-5.2-5.3v14.7H85z M69.8,171.4H57.5l-0.1,13.9h12.3V171.4z M69.7,143.7h-7.9c-0.3,2.8-0.8,5.5-1.4,8.1h9.4V143.7
			z M69.7,129.5h-7.1c0,2.9-0.1,5.7-0.2,8.3h7.4V129.5z M104.5,167.2c0-7.3-4.6-12.1-8.2-15.9c1.8-6.5,3.8-15.9,5-22h-7.3v46.2
			c1.4,0.2,2.5,0.3,3.5,0.3c4.6,0,6.6-1.9,6.9-7.7V167.2z"/>
		<path fill="#FFFFFF" d="M177.9,194.1v-4.8h-42.3v5h-10.3v-57.8h10.3v45.8h15.5v-60h10.7v60h16.1V136h10.3v58H177.9z"/>
	</g>
	<g>
		<g>
			<path fill="#FFFFFF" d="M341.9,175.7c-0.1,1.7-0.2,3.3-0.2,4.8c0,3.5,0.4,6.5,1.7,8.5c-2.3,4.2-10.3,4.9-30.7,4.9
				c-5.9,0-11.7-0.2-16.6-0.5c-7.3-0.5-9.1-4.8-9.1-9.2l0.2-22h-2.6c-0.1,11.5-2.5,24.4-14.3,32.8l-3.9-2.8
				c8.6-8.7,9.7-18.8,9.8-29.3h-5.3v-34.5l8,1.8h0.6c1.5-3.4,2.6-7.2,2.9-9.9l12,1.8c-2.2,2.9-5.1,5.9-8.1,8.2h11l2.2-1.9l6.9,3.5
				l-2.3,2.2v29.3h-7.7v-1h-1.2l-0.2,20.9c0,1.8,1,2.9,3.1,3c3.4,0.2,7.5,0.2,11.9,0.2c6.7,0,13.8-0.2,19.9-0.6
				c6.6-0.5,5.6-5.6,6.1-10.5L341.9,175.7z M283.9,135.6h-5.3v7.3h5.3V135.6z M283.9,148.5h-5.3v8.3h5.3V148.5z M296.3,135.6h-5.1
				v7.3h5.1V135.6z M296.3,148.5h-5.1v8.3h5.1V148.5z M306.8,184.5c-0.2-1-0.3-2.2-0.6-3.4c-2.6,1.4-5.6,2.5-8.3,3.4l-2.6-6.1h1.9
				c0.9-4.2,1.2-9.5,1.2-13.5l7.4,1.4c-1,3.8-2.7,8.3-4.6,11.8c1.4-0.2,2.8-0.3,4.1-0.6c-0.4-1.2-0.9-2.3-1.4-3.4l3-1.5
				c1.9,2,4.3,5.4,5.8,8.3L306.8,184.5z M342.5,171.2c0,0-5.1,0.1-7.6,2.5c-3.2-3.6-6.2-10-8.2-17.3v25.2h-8.7
				c0.1-7,0.6-15.3,0.9-20.5c-2.5,4.7-5.9,9.1-10.2,12.6l-3.3-2.6c4.6-5.4,8.5-12.9,10.8-20.8H308l-2.1-5.6h12.7v-7.8h-9l-2.2-5.6
				h11.1v-10.3h8.2v10.3h3.6l4.3-3.4l5.6,4.8l-5.2,4.2h-8.3v7.8h5.5l4.5-3.4l5.7,4.7l-5.3,4.3H329c3.4,7.8,9.1,14.5,15.4,18.4
				L342.5,171.2z"/>
			<path fill="#FFFFFF" d="M382,181.2c4.6,0.7,8.4,1.2,11.5,1.2c5.6,0,8.7-1.6,10-5.7c2.3-7.2,3.4-21,3.5-32.8h-18.5
				c-2.2,22.5-11.4,41-36.5,50.4l-4.5-4.8c20.8-10.6,27.6-25.3,29.8-45.6h-22.2l-2.5-6.9h25.2c0.2-4.9,0.4-10.8,0.5-16.3h11.5
				c-0.2,4.9-0.5,11.3-0.8,16.3h18.6l2.8-3l10.2,5l-3,3.1c-0.1,10.8-1,28.8-3.4,37.7c-2.4,8.8-8.3,12.8-17.8,13.8
				c-2.7-3.7-7.4-5.8-15-7L382,181.2z"/>
		</g>
	</g>
	<g>
		<path fill="#FFFFFF" d="M200.3,256.6c0,1.7-0.5,4.7-7.1,6.1c-1.7-2.8-5.4-3.8-9.6-4.2V255c2.4,0.2,4.2,0.2,5.6,0.2
			c3.3,0,4-0.5,4-1.8v-5.1h-27.7v14.2h-7.1v-14.2h-6l-1.8-4.7h7.8v-25.5l7.2,2.1h9.8v-5.7h-21.4l-1.7-4.7h45.6l3.8-2.6l4.7,3.8
			l-4.5,3.5h-19.3v5.7h11.1l1.7-2.1l6.8,3l-2,2.3v20.1h0.9l3.4-3l4.3,3.9l-3.9,3.9h-4.7v2.9l0.2,4.8V256.6z M175.5,225h-10v6.7h10
			V225z M175.5,236.2h-10v7.4h10V236.2z M193.2,225h-10.6v6.7h10.6V225z M193.2,236.2h-10.6v7.4h10.6V236.2z"/>
		<path fill="#FFFFFF" d="M265.5,247.8c-0.2,1.7-0.2,3.2-0.2,4.5c0,2.5,0.4,4.3,1.3,5.7c-0.6,2.3-4.2,3.6-5.8,3.8
			c-2.1,0.2-4.4,0.4-6.8,0.4c-2.3,0-4.7-0.1-6.8-0.4c-3.3-0.4-5.2-3.2-5.2-6.5L242,245h-6.9c-1.4,9.2-6.2,15.2-20.1,18.1l-2.4-3.2
			c9.1-3,13.8-6.9,15.4-14.9h-12.5l-1.8-4.5h14.8c0-0.5,0.1-1,0.1-1.4v-6.7h-2.4l-0.5-1.4c-3.7,3.2-8,5.9-12.6,7.8l-2.8-2.9
			c10-5.1,17.2-14.2,20-20.9H217l-1.9-4.4h16.7l1.8-1.9l5.1,2.8c-0.4-0.9-0.7-1.9-1.1-2.8l4-1.3c1.2,2.9,2.6,5.6,4.4,8.1
			c2.3-2.2,4.5-5.6,5.5-7.9l7.2,4.1c-3.2,2.6-7.1,5-10.6,6.5c1.3,1.5,2.6,2.9,4.2,4.2c2.8-2.3,5.6-5.7,6.9-8.5l7.3,4.3
			c-3.5,2.8-7.5,5-11.1,6.6c3.5,2.3,7.7,4.2,12.8,5.6l-1.2,2.9c0,0-4.4-0.1-7.5,2.7c-2.6-1.3-5-2.9-7.2-4.8l-1.6,1.2h-1.6l-0.1,8.1
			h6.7l3.9-2.7l5,3.8L260,245h-10.8l-0.1,8.7c0,2.3,1.4,2.3,4,2.3c5.7,0,7.1-0.3,7.8-8.7L265.5,247.8z M220.2,226.9
			c-1.7-3.7-4.4-6.8-6.9-8.7l2.2-2.6c3,0.8,7.4,2.6,10,4.2L220.2,226.9z M248.1,226.9c-3.4-3.9-6.3-8.5-8.5-13.8
			c-0.6,0.5-1.1,1.1-1.3,1.4c-2.2,4.7-5.4,9.4-9.4,13.5h17.9L248.1,226.9z M242.1,232.3h-6.4c0,2,0,5.1-0.1,6.4c0,0.6,0,1.1-0.1,1.7
			h6.5L242.1,232.3z"/>
		<path fill="#FFFFFF" d="M326.6,248c-0.2,1.9-0.3,3.3-0.3,4.6c0,2.3,0.4,3.8,1.1,5.1c-0.6,2.3-4.2,3.9-5.8,4.1
			c-2.5,0.3-5.4,0.4-8.3,0.4c-2.8,0-5.5-0.1-7.7-0.4c-3.3-0.4-5.3-3.3-5.3-6.8v-10.6h-3.8c-1.2,10.2-8.7,17.2-23.7,18.7l-2.4-3.7
			c11.8-1.7,17.5-6.8,18.5-15h-2.5v1.1h-7.4v-37.1l8,1.8h24.3l2.2-2l6.8,3.3l-2,2.1v31.9h-7.5v-1.1h-3v9c0,2.3,1.6,2.5,5.7,2.5
			c6.9,0,8-0.7,8.9-8.3L326.6,248z M310.9,214.8h-24.4v5.2h24.4V214.8z M310.9,224.5h-24.4v5.3h24.4V224.5z M310.9,234.3h-24.4v5.6
			h24.4V234.3z"/>
		<path fill="#FFFFFF" d="M341.2,256.3c0-3,2.5-5.6,5.4-5.6c2.9,0,5.6,2.6,5.6,5.6c0,3.1-2.6,5.9-5.6,5.9
			C343.7,262.1,341.2,259.4,341.2,256.3z M344.1,246.3l-1.7-20.5v-15.7h8.7v15.6l-1.7,20.6H344.1z"/>
	</g>
	<path fill="#FFFFFF" d="M42.3,56.9l-0.2-0.1c-3.7-1.2-7.8-3.1-9.1-6.4c-0.3-0.7-0.4-1.3-0.4-2c0-0.7,0.2-1.3,0.5-1.7
		c1.1-2.1,3.8-4,6.2-5.7c1.9-1.3-1-3.3-2-3.9c-2.3-1.4-5.8-1.4-8.5-1.8c-6.8-0.8-13.7-0.6-20.5-0.4c-2.7,0.1-5.3,2.1-8,2.1
		c6.3-0.2,12.6-0.3,18.8,0.2c1.9,0.2,15.4,1.3,12.1,5.8c-1.2,1.6-4.1,2.4-5.6,4c-2.2,2.3-1.2,5,0.5,7.1c1.5,1.9,3.4,3.4,5.6,4.6l0,0
		c0,0,0,0,0.1,0c1.7,0.9,3.6,1.7,5.4,2.2c1.8,0.7,3.7,1.4,4.9,1.6c1.6,0.3,2.3-0.3,2.6-0.9c1.8-0.7,3.7-2,5.4-1.7
		c-2.5-0.4-4.8-1.1-7-2L42.3,56.9z"/>
	<path fill="#FFFFFF" d="M453.8,132.5c-4.8-0.2-13.2-0.6-15.7-5.4c-2.6-4.9,5.1-10.5,8.2-12.9c4.9-4,9.2-9.8,4.9-15.8
		c-1.8-2.5-4.1-4.1-6.6-5v0c0,0-0.2-0.1-0.7-0.2c-0.7-0.2-1.4-0.4-2.2-0.5c-4.2-0.8-13.6-1.9-30.6-0.4l0,0c-8.5,0.4-17.6,1.3-25,3.1
		l-3,3.2c0,0-0.1,0-0.1,0c-3.5-0.3-7.2,3.1-10.6,2.8c2.6,0.2,5.2,0.3,7.8,0.3l-0.7,0.8l2.7,2.4c0,0,18.8-5,34.9-7.4
		c0.6-0.1,1.1-0.2,1.7-0.2c0,0,0.1,0,0.1,0c12-1.6,17.6,0.6,20.1,2.3c0.1,0.1,0.3,0.3,0.4,0.4c11.5,11-12.2,18.6-12.3,28.6
		c-0.1,5.6,10.7,6.1,14.3,6.5c7,0.7,14.2-0.2,21.2-1c3.6-0.4,7-2.4,10.6-2.8C466.9,132.1,460.4,132.8,453.8,132.5z"/>
	<path fill="#FFFFFF" d="M363.9,89.9c0,0,3.4,7.5,28.5,4.3l-2.2,3l-27.4-2L363.9,89.9z"/>
	<polygon fill="#FFFFFF" points="416.6,90 415.8,76.3 424.2,75.9 422.9,89.5 	"/>
	<polygon fill="#FFFFFF" points="440.1,90.4 441.2,82.5 446.6,83.5 444.2,91.1 	"/>
	<polyline fill="#009FD0" points="408.4,85.6 409.4,91.3 414.4,90.5 	"/>
	<path fill="#FFFFFF" d="M410.3,80.5l-4.4,5.4l1.8-0.2l0.5,4.9l6.1-0.6l-0.5-4.9l1.8-0.2L410.3,80.5z M410.7,88.8l-1.3,0.1l-0.1-1.3
		l1.3-0.1L410.7,88.8z M410.5,87l-1.3,0.1l-0.1-1.3l1.3-0.1L410.5,87z M412.8,88.6l-1.3,0.1l-0.1-1.3l1.3-0.1L412.8,88.6z
		 M412.6,86.8l-1.3,0.1l-0.1-1.3l1.3-0.1L412.6,86.8z"/>
	<path fill="#FFFFFF" d="M435.8,82.8l-3.8,3.2l1.3,0.1l-0.3,3.5l4.4,0.4l0.3-3.5l1.3,0.1L435.8,82.8z M434.9,88.7l-0.9-0.1l0.1-1
		l0.9,0.1L434.9,88.7z M435,87.4l-0.9-0.1l0.1-1l0.9,0.1L435,87.4z M436.4,88.8l-0.9-0.1l0.1-1l0.9,0.1L436.4,88.8z M436.6,87.5
		l-0.9-0.1l0.1-1l0.9,0.1L436.6,87.5z"/>
	<polygon fill="#FFFFFF" points="425.2,89.2 430.1,89.4 431.6,80.4 425.7,80.2 	"/>
	<rect x="417.2" y="77.9" fill="#009FD0" width="5.6" height="1.1"/>
	<rect x="417.2" y="80" fill="#009FD0" width="5.6" height="1.1"/>
	<polygon fill="#FFFFFF" points="423.8,89.4 424.2,85.6 426.8,85.6 428.4,87.9 428.8,86.8 431.2,86.9 431.2,89.7 	"/>
	<path fill="#FFFFFF" d="M477.2,92.2c0,0-1.4,4-1.2,4.8c0.1,0.7,3.4,1.3,3.8,1.4l0,0.7l1.4,0.4c-0.4,1.5-0.5,3.1-0.6,3.8
		c0,0.6,0,1.9,0.1,3.2l-0.1,0l0.3,7h0.3c0.1,1.4,0.3,2.8,0.4,3.1c0.2,0.5,1.1,4.6,1.3,5.9c-0.1,0-0.1,0-0.1,0c0,0.1,0,0.6,0,0.9
		c-0.2,0.2-0.2,0.6-0.2,0.6s-0.9,0.6-1.7,0.8c-0.9,0.3-1.1,0.9-1,1.3c0.1,0.4,2.8,0.3,3.3,0.3c0.3,0,0.1-0.2,0.4-0.2
		c0.3,0,0.3,0.1,0.3,0.1s1.7,0.3,2-0.3c0.3-0.5-0.1-2.2-0.1-2.2c0-0.2,0.3-0.5,0.3-0.5s-0.1-0.1-0.1-0.1c-0.1,0-0.2,0.2-0.2,0.2
		s0,0-0.1,0c0-0.4,0-0.9,0-1c0.1-0.1,0-0.2,0-0.2s0,0-0.1,0c-0.1-1.7-0.9-5.5-1-5.8c0-0.2,0-1.6,0-2.9h0.7c0,0-0.2-1.9,0.3-3.3
		c0.2-0.4,0.3-1,0.4-1.5c0.1-0.3,0.2-0.6,0.2-0.9c0.3-1.9-0.2-3.5-0.2-4.2c0-0.7,1.3-3.3,0.6-5.9c-0.4-1.7-0.1-2.2-0.2-2.4
		c0,0-0.1,0-0.2-0.1c0-0.3,0-0.7,0.1-1.1c0.5-0.4,2.1-1.8,2.4-2.6c0.6-1.6,0-5.5-3.9-5.4c-0.3-0.1-2.5-0.3-3.1,1
		c-0.4,0.9-0.6,1.4-0.3,2.4c0,0.4,0.1,0.8,0,0.9c0,0-0.1,0.1-0.1,0.1l0-1.2l-1.6-0.1l0-0.2l-0.2,0c0-0.1,0-0.1,0-0.2
		c0-0.3-0.4-0.4-0.5,0.1c0,0,0,0,0,0.1l-0.2,0c0-0.2,0-0.4-0.1-0.5c-0.1-0.1-0.4-0.2-0.4,0.2c0,0.1,0,0.2-0.1,0.3l-0.2,0
		c0-0.2-0.1-0.4-0.1-0.5c-0.1-0.2-0.4-0.2-0.5,0.1c0,0.1,0,0.2,0,0.3l-0.1,0l0-0.2c0,0,0-0.2-0.1-0.2c-0.1,0-0.3-0.1-0.3,0.4
		l-1.4-0.1l0,2.1l1.3,0c0,0.1,0,0.1,0,0.2C477,92,477.2,92.2,477.2,92.2z M478,95.5l0.1-0.6l0,0l0.5-2.9l0.2-0.2
		c0.1-0.1,0.2-0.5,0.3-0.8l0.5,0l0-0.2l1.5,0c-0.2,0.1-0.3,0.3-0.3,0.3c0,0.1,0.1,0.4,0.3,0.5c0.2,0-0.1,0.6,0,0.6
		c0.1,0,0.1,0.1,0.1,0.1s-0.2,0.2-0.1,0.3c0.1,0.1-0.2,1.3,0.5,1.3c0.6,0.1,1.6,0.4,1.7,0.9c0.1,0.2,0,0.5,0,0.8l-3.2-0.2l-0.1,0.1
		L478,95.5z"/>
	<path fill="#FFFFFF" d="M14.3,7.6l0.9-1.1L16,5.7V5.4c0,0-2.1-1.4-2.1-2s0.2-1.5,0.2-1.5l1-1.2c0,0,1.7-0.2,1.8-0.2
		c0.1,0.1,1.1,0.7,1.1,0.7l0.1,0.3v0.7l0.2,0.5l0.7,0.6l0.2,0.5L19,4.1l-0.2,0.6l-0.3,0.5l-0.4,0.4L18,6.1l0.5,1.2
		c0,0,0.7,1.5,0.7,1.6c0,0.1,0.2,1,0.2,1l0.4,1.2L20,12l2.3-1.5l0.6,0.4l0.8-1L23.3,9l-0.1-0.6l2.6-3.5l1.7,0.2l0.8,0.8l-2.8,3.5
		l0.1,1.5l-0.6,0.7l-0.3,0.2l0.2,0.6l-2.2,1.3l-1.3,0.8h-1.1l0.2,3.6V19l-0.4,0.3l0.1,5.3l0.2,4.8l0.7,4.2l0.5,1.3l1.4,0.3l1.5,0.1
		l-0.1,0.5L23,36.6h-2.2l-2-0.2l-0.7-0.8l-0.7-3.5l-0.1-4.2l-0.4-3l-1,3.8L15,32.8l-0.4,1.4l0.1,1.2l0.8,1.5l0.2,0.7l-1.1,0.3
		L13,36.7l-0.5-0.2l-1-0.1l-0.8-1.2l0.9-1.9l1-2.6l0.5-3.1l0.5-3.5l0.1-1.5l-0.6-1.2V20l0.2-1l-0.2-3.4L13,13.6l0-1.1l0.2-2.1
		l0.5-1.2l0.4-1L14.3,7.6z"/>
	<polygon fill="#FFFFFF" points="154.6,243.7 129.8,243.7 132.7,248.5 158.5,248.5 	"/>
	<rect x="158.5" y="262.1" fill="#FFFFFF" width="7" height="12.6"/>
</g>
</svg>
