<?xml version="1.0" encoding="utf-8"?>
<!-- Generator: Adobe Illustrator 18.1.1, SVG Export Plug-In . SVG Version: 6.00 Build 0)  -->
<svg version="1.1" xmlns="http://www.w3.org/2000/svg" xmlns:xlink="http://www.w3.org/1999/xlink" x="0px" y="0px"
	 viewBox="0 0 1081.4 213" enable-background="new 0 0 1081.4 213" xml:space="preserve">
<g id="レイヤー_2" display="none">
	<rect x="0.5" y="0.5" display="inline" fill="#009FD0" stroke="#FFFFFF" stroke-miterlimit="10" width="1080.4" height="212"/>
</g>
<g id="レイヤー_1">
	<g>
		<g>
			<path fill="#FFFFFF" d="M114.8,142.3c-4.6-4.9-10.1-9.3-17.1-12.4c-1.8,11.5-12.7,13.8-19.5,13.8c-10.8,0-19-6.3-19-12.8
				c0-6.2,7.1-12.1,19-12.1c3.1,0,6,0.1,8.8,0.4c0-3.3-0.1-7-0.2-10.8c-1.7,0.1-3.4,0.2-5.1,0.2c-13.5,0-18.9-2.6-18.9-6.3
				c0-2.7,2.9-6,5.8-8.3l6.5,1.9c-2,1.3-2.8,2.3-2.8,3.1c0,1.9,4.7,2.3,7.8,2.3c2.1,0,4.3-0.3,6.5-0.5c-0.1-3.9-0.2-7.8-0.3-11.9
				c-4.3,0.4-8.2,0.6-11.6,0.6c-6.6,0-11.7-0.8-16-2.3l-1.3-8.1c4.2,1.9,9.1,2.7,15.5,2.7c3.8,0,8.2-0.4,13.2-1
				c-0.1-4.8-0.1-9.6-0.1-14.2l11.4,0.1c-0.1,4.1-0.2,8.5-0.2,12.9c5.9-1.1,13-2.5,19.9-4.2l0.4,8.9c-7.7,1.4-14.4,2.5-20.3,3.3
				c0,3.8,0.1,7.7,0.2,11.4c5.6-1.4,11.8-3.3,17.1-5.5l0.5,9.1c-3.3,1.3-9.6,3.3-17.5,4.6c0.1,5,0.2,9.7,0.2,13.8
				c8.8,2,16.2,5.5,23.4,9.9L114.8,142.3z M77.4,125.4c-5,0-10,1.5-10,4.8c0,3.3,4.9,4.8,9.3,4.8c8,0,10-4.2,10.3-8.1
				C82.1,125.5,79.2,125.4,77.4,125.4z"/>
			<path fill="#FFFFFF" d="M160.3,137.3c1,0,1.9,0,2.7,0c22.1,0,36.8-7.6,36.8-18.6c0-3.2-1.4-10.7-12.2-10.7
				c-10.1,0-18.4,6.8-21.9,12.4c-0.6,1.1-0.7,1.9-1.1,2.9l-11.5-0.1c1.2-7.2,4.4-19.1,7.1-31.4c-2.6,0.4-5.1,0.5-7.2,0.5
				c-3.1,0-5.7-0.4-8.3-1l-1.3-7.9c3.2,0.9,5.8,1.5,9,1.5c2.6,0,5.6-0.4,9.6-1.4c1.2-6.2,2.3-12.1,2.7-17.2l12,2.1
				c-1,4.1-2,8.5-3.1,12.8c6.2-2,14.5-5,21-7.8l1.5,10.1c-10,2.8-18.1,4.8-24.7,6.3c-2.4,9.1-4.4,16.6-4.7,17.8
				c8.8-4.9,16.9-6.4,23.3-6.4c2.6,0,21.9,0.2,21.9,18c0,15.2-17.4,24.7-44.7,24.7c-1.9,0-4-0.1-6-0.2L160.3,137.3z"/>
		</g>
	</g>
	<g>
		<g>
			<path fill="#FFFFFF" d="M879.4,83.5c10.7-0.9,24.5-6.9,24.5-22.8c0-12-8-18.8-18.8-18.9c-1.8,0-3.5,0.1-5.2,0.5l6.9,2.5
				c0.1,0.5,0.1,1.2,0.1,1.8c0,8.7-5.7,24.6-11.4,32.1c-2.3,3.1-5.1,4.7-7.8,4.7c-5,0-13.3-7.3-13.3-17.8c0-12.1,10.4-29,31.3-29
				c15.9,0,27.3,10.1,27.3,24.7c0,14.2-10.3,25.1-31.1,27.1L879.4,83.5z M861.2,64c0,6.2,4.2,10.1,6,10.1c0.7,0,1.4-0.4,1.9-1.1
				c3.7-4.9,9.4-18,9.4-28.1c0-0.7-0.1-1.6-0.1-2.3C865.4,46,861.2,56.9,861.2,64z"/>
		</g>
	</g>
	<g>
		<path fill="#FFFFFF" d="M335.7,95h-39.3v20.7l0.4,9.9v0.5c0,3.3-1.6,11.5-16.6,14.3c-3.7-6-11.5-8.9-18.2-9.6v-7.5
			c4.7,0.3,8.1,0.4,10.6,0.4c6.5,0,6.9-1,6.9-3.7V95h-49.4l-3.8-10.5h22.5V54h16.8v30.5h14.7V45h17v15.6h18.8l9.9-7.1l11.3,9.3
			l-11,8h-29.1v13.7H325l9.8-6.8l12.2,9.2L335.7,95z M226.9,131.9c12.3-9.6,21.2-20.9,26.8-33.8l17.7,7.9
			c-9.4,12.6-23.6,24.9-37.6,32.3L226.9,131.9z M326.6,128.4c-19,28.5-52.9,37-94.6,37.8l-4.6-9.4c40.3-2.2,68.7-12.4,81.2-35.7
			L326.6,128.4z M332.5,134.4c-6-10.3-16.4-21.6-26.3-29.1l6.5-5.9c11.4,4.6,24.9,12.6,33.6,19.4L332.5,134.4z"/>
	</g>
	<g>
		<path fill="#FFFFFF" d="M405.7,146.6c-3.5,0.7-7.8,1.1-12.3,1.1c-32.6,0-32.7-16-32.7-17.4c0-6,4-16,31.6-16
			c3.1,0,5.9,0.1,8.4,0.2c-1.3-1.9-3.3-5.2-5.6-9.3c-9,1.9-15.4,2.6-20.7,2.6c-5.3,0-9.4-0.8-13.9-2l-1.9-8.8
			c5,1.7,9.3,2.7,14.6,2.7c4.7,0,10.2-0.9,17.7-2.7c-1.2-2.6-2.6-5.1-3.8-7.8c-4.7,0.9-8.4,1.3-11.5,1.3c-4.6,0-8.1-0.9-12.2-2.4
			l-1.4-8.1c5.4,1.8,9,3.1,13.6,3.1c2.4,0,5-0.4,8.4-1.1c-2.1-5-3.7-9.6-4.5-13.1l10.6-1.4c0.5,3.3,1.8,7.6,3.4,12.2
			c3.7-1.1,8.4-2.5,12.7-4.1l2.1,8.5c-4.4,1.2-8.4,2.3-11.8,3.2c1.1,2.6,2.4,5.1,3.6,7.7c4.3-1.2,9.7-2.8,14.5-4.7l2.5,9.8
			c-4.7,1.2-8.8,2.3-12.6,3.2c6.2,11.1,7.7,13,13.8,17.6l-9.8,6.9c-1.9-1.4-3.3-2.4-5.6-3.1c-4.7-1.5-10.3-2.5-15.7-2.5
			c-10.1,0-16.1,3.4-16.1,7.3c0,8,18.1,8.3,19.7,8.3c5.8,0,12-0.9,17.5-2.3L405.7,146.6z"/>
		<path fill="#FFFFFF" d="M500.3,142c-1.6,0.2-3.2,0.3-4.8,0.3c-15.6,0-32.4-9-32.4-26.7c0-17.6,13.2-28.6,15.2-30.2
			c-11.5,1.9-23.2,4.4-34.4,7.9l-4.6-9.3c20.5-3.3,50.9-7.7,70.3-11.6l0.5,9.7c-1,0.1-1.9,0.1-2.9,0.2c-6.3,0.5-11.8,1.1-17.4,4.1
			c-10.5,5.7-16.9,15.4-16.9,25.3c0,13,11.2,18.7,24.5,18.7c2.5,0,5.1-0.2,7.9-0.6L500.3,142z M499.3,104.6
			c-1.3-4.8-3.5-11.5-6-15.1l4.3-1.5c2.6,2.4,7.6,8.6,9.5,12.5L499.3,104.6z M510.4,101.3c-1.3-4.8-3.5-9.9-6-13.4l4.3-1.5
			c2.4,1.9,7.8,7.1,9.6,11L510.4,101.3z"/>
	</g>
	<g>
		<path fill="#FFFFFF" d="M740.1,96.9V42.5l-3.4,3.5h-3.4v15.9h-8.5V60h-11.3c-1,2.3-2.1,4.6-3.4,6.7l3.4,1H726l2.5-2.6l8,3.8
			l-2.5,2.8v24.4h-9.1v-2.6h-12.4v3.4h-9.1l0.2-22c-2.1,2-4.4,4.1-7.1,6l-3.8-3.4c6.1-5.5,9.9-11.3,12.2-17.5h-6.3l-2.3-5.9h10.3
			c0.6-2.6,1-5.3,1.4-8.1h-12.1l-2.1-5.9h14.6c0.1-2.7,0.2-5.4,0.2-8.3h-9.2l-2.3-5.9h28.3l2.6-2.6l7.6,3.5l-2.2,2.6v10.7h0.5l2.6-3
			l3.7,3.4V22.9l9.5,2.6h9.5l2.6-2.5l8.4,5.5l-3,2.6l-8.3,18.1c4.3,4.8,10.1,11.2,10.1,20.9c0,5.4-1.4,16.5-14.4,17.2
			c-1.1-2.6-2.7-4.2-5.2-5.3v14.7H740.1z M724.9,73.6h-12.3l-0.1,13.9h12.3V73.6z M724.8,46h-7.9c-0.3,2.8-0.8,5.5-1.4,8.1h9.4V46z
			 M724.8,31.8h-7.1c0,2.9-0.1,5.7-0.2,8.3h7.4V31.8z M759.6,69.5c0-7.3-4.6-12.1-8.2-15.9c1.8-6.5,3.8-15.9,5-22h-7.3v46.2
			c1.4,0.2,2.5,0.3,3.5,0.3c4.6,0,6.6-1.9,6.9-7.7V69.5z"/>
		<path fill="#FFFFFF" d="M833,96.3v-4.8h-42.3v5h-10.3V38.8h10.3v45.8h15.5v-60h10.7v60H833V38.3h10.3v58H833z"/>
	</g>
	<g>
		<g>
			<path fill="#FFFFFF" d="M997,78c-0.1,1.7-0.2,3.3-0.2,4.8c0,3.5,0.4,6.5,1.7,8.5c-2.3,4.2-10.3,4.9-30.7,4.9
				c-5.9,0-11.7-0.2-16.6-0.5c-7.3-0.5-9.1-4.8-9.1-9.2l0.2-22h-2.6c-0.1,11.5-2.5,24.4-14.3,32.8l-3.9-2.8
				c8.6-8.7,9.7-18.8,9.8-29.3h-5.3V30.6l8,1.8h0.6c1.5-3.4,2.6-7.2,2.9-9.9l12,1.8c-2.2,2.9-5.1,5.9-8.1,8.2h11l2.2-1.9l6.9,3.5
				l-2.3,2.2v29.3h-7.7v-1h-1.2l-0.2,20.9c0,1.8,1,2.9,3.1,3c3.4,0.2,7.5,0.2,11.9,0.2c6.7,0,13.8-0.2,19.9-0.6
				c6.6-0.5,5.6-5.6,6.1-10.5L997,78z M939,37.9h-5.3v7.3h5.3V37.9z M939,50.7h-5.3V59h5.3V50.7z M951.5,37.9h-5.1v7.3h5.1V37.9z
				 M951.5,50.7h-5.1V59h5.1V50.7z M962,86.7c-0.2-1-0.3-2.2-0.6-3.4c-2.6,1.4-5.6,2.5-8.3,3.4l-2.6-6.1h1.9
				c0.9-4.2,1.2-9.5,1.2-13.5l7.4,1.4c-1,3.8-2.7,8.3-4.6,11.8c1.4-0.2,2.8-0.3,4.1-0.6c-0.4-1.2-0.9-2.3-1.4-3.4l3-1.5
				c1.9,2,4.3,5.4,5.8,8.3L962,86.7z M997.6,73.5c0,0-5.1,0.1-7.6,2.5c-3.2-3.6-6.2-10-8.2-17.3v25.2h-8.7c0.1-7,0.6-15.3,0.9-20.5
				c-2.5,4.7-5.9,9.1-10.2,12.6l-3.3-2.6c4.6-5.4,8.5-12.9,10.8-20.8h-8.3L961,47h12.7v-7.8h-9l-2.2-5.6h11.1V23.3h8.2v10.3h3.6
				l4.3-3.4l5.6,4.8l-5.2,4.2h-8.3V47h5.5l4.5-3.4l5.7,4.7l-5.3,4.3h-8.1c3.4,7.8,9.1,14.5,15.4,18.4L997.6,73.5z"/>
			<path fill="#FFFFFF" d="M1037.1,83.5c4.6,0.7,8.4,1.2,11.5,1.2c5.6,0,8.7-1.6,10-5.7c2.3-7.2,3.4-21,3.5-32.8h-18.5
				c-2.2,22.5-11.4,41-36.5,50.4l-4.5-4.8c20.8-10.6,27.6-25.3,29.8-45.6h-22.2l-2.5-6.9h25.2c0.2-4.9,0.4-10.8,0.5-16.3h11.5
				c-0.2,4.9-0.5,11.3-0.8,16.3h18.6l2.8-3l10.2,5l-3,3.1c-0.1,10.8-1,28.8-3.4,37.7c-2.4,8.8-8.3,12.8-17.8,13.8
				c-2.7-3.7-7.4-5.8-15-7L1037.1,83.5z"/>
		</g>
	</g>
	<g>
		<path fill="#FFFFFF" d="M888.8,181.2c0,2-0.7,5.8-8.6,7.5c-2.1-3.4-6.7-4.6-11.8-5.2v-4.2c2.9,0.2,5.1,0.3,6.8,0.3
			c4,0,4.9-0.7,4.9-2.2v-6.2h-33.9v17.4h-8.6v-17.4h-7.4l-2.2-5.8h9.6v-31.2l8.9,2.6h12v-7h-26.2l-2.1-5.8h55.8l4.6-3.1l5.7,4.7
			l-5.6,4.2H867v7h13.6l2.1-2.6l8.3,3.7l-2.4,2.9v24.7h1.1l4.2-3.7l5.3,4.8l-4.8,4.8h-5.7v3.5l0.2,5.9V181.2z M858.4,142.4h-12.2
			v8.2h12.2V142.4z M858.4,156.2h-12.2v9.1h12.2V156.2z M880.1,142.4h-13v8.2h13V142.4z M880.1,156.2h-13v9.1h13V156.2z"/>
		<path fill="#FFFFFF" d="M968.6,170.4c-0.2,2.1-0.3,4-0.3,5.6c0,3.1,0.4,5.3,1.5,7c-0.7,2.8-5.1,4.4-7.1,4.6
			c-2.6,0.3-5.4,0.4-8.3,0.4c-2.9,0-5.7-0.1-8.3-0.4c-4.1-0.4-6.4-4-6.4-8l0.1-12.7h-8.4c-1.8,11.3-7.6,18.7-24.7,22.2l-2.9-4
			c11.1-3.7,16.9-8.4,18.8-18.2h-15.3l-2.2-5.6h18.2c0-0.6,0.1-1.2,0.1-1.8v-8.2h-2.9l-0.7-1.7c-4.5,3.9-9.8,7.2-15.5,9.5l-3.4-3.5
			c12.3-6.2,21.1-17.4,24.5-25.6h-16l-2.3-5.3h20.5l2.2-2.3l6.3,3.4c-0.4-1.1-0.9-2.3-1.3-3.4l4.9-1.6c1.5,3.5,3.2,6.8,5.3,9.9
			c2.8-2.7,5.5-6.8,6.7-9.7l8.8,5.1c-4,3.1-8.7,6.2-13,8c1.5,1.8,3.2,3.5,5.1,5.1c3.4-2.8,6.8-7,8.4-10.5l8.9,5.3
			c-4.2,3.4-9.2,6.2-13.6,8.1c4.3,2.9,9.4,5.2,15.7,6.8l-1.5,3.6c0,0-5.3-0.1-9.2,3.3c-3.1-1.6-6.1-3.6-8.8-5.9l-1.9,1.5h-1.9
			l-0.1,10h8.2l4.8-3.3l6.1,4.6l-5.9,4.2h-13.3l-0.1,10.7c0,2.9,1.8,2.9,4.9,2.9c7,0,8.7-0.4,9.6-10.6L968.6,170.4z M913.1,144.7
			c-2.1-4.5-5.4-8.3-8.5-10.6l2.6-3.1c3.7,1,9,3.1,12.2,5.2L913.1,144.7z M947.3,144.7c-4.2-4.8-7.7-10.4-10.5-16.8
			c-0.7,0.7-1.4,1.4-1.5,1.7c-2.6,5.8-6.6,11.5-11.6,16.5h22L947.3,144.7z M939.9,151.4h-7.8c0,2.5,0,6.3-0.1,7.8
			c0,0.7,0,1.4-0.1,2.1h7.9L939.9,151.4z"/>
		<path fill="#FFFFFF" d="M1043.5,170.5c-0.2,2.3-0.4,4.1-0.4,5.6c0,2.9,0.4,4.7,1.4,6.3c-0.7,2.8-5.1,4.8-7.1,5
			c-3,0.4-6.6,0.5-10.2,0.5c-3.4,0-6.7-0.1-9.4-0.5c-4.1-0.5-6.5-4.1-6.5-8.3v-13h-4.6c-1.5,12.4-10.7,21.1-29.1,22.9l-2.9-4.5
			c14.4-2.1,21.4-8.3,22.7-18.4h-3.1v1.4h-9v-45.4l9.7,2.2h29.8l2.6-2.5l8.3,4l-2.4,2.6v39.1h-9.2v-1.4h-3.7v11c0,2.9,1.9,3,7,3
			c8.5,0,9.7-0.8,10.9-10.1L1043.5,170.5z M1024.2,130h-29.9v6.4h29.9V130z M1024.2,141.8h-29.9v6.4h29.9V141.8z M1024.2,153.8
			h-29.9v6.8h29.9V153.8z"/>
		<path fill="#FFFFFF" d="M1061.3,180.7c0-3.7,3.1-6.9,6.7-6.9s6.8,3.2,6.8,6.9c0,3.8-3.2,7.2-6.8,7.2S1061.3,184.5,1061.3,180.7z
			 M1064.9,168.5l-2.1-25.1v-19.2h10.7v19.1l-2.1,25.2H1064.9z"/>
	</g>
	<path fill="#FFFFFF" d="M59.5,79.7l-0.2-0.1c-4.8-1.5-10.2-4.1-11.8-8.2c-0.4-0.9-0.5-1.7-0.5-2.5c0-0.9,0.2-1.7,0.6-2.2
		c1.4-2.8,5-5.2,8.1-7.3c2.4-1.7-1.3-4.3-2.6-5c-3-1.8-7.6-1.9-11-2.3c-8.8-1.1-17.8-0.8-26.6-0.5c-3.5,0.1-6.9,2.7-10.3,2.8
		c8.2-0.2,16.3-0.3,24.4,0.3c2.5,0.2,20,1.7,15.7,7.6c-1.5,2.1-5.3,3.2-7.2,5.2c-2.8,2.9-1.5,6.5,0.6,9.3c1.9,2.5,4.5,4.4,7.3,6l0,0
		c0,0,0,0,0.1,0c2.2,1.2,4.6,2.2,7,2.9c2.4,0.9,4.8,1.8,6.3,2c2,0.4,2.9-0.4,3.3-1.1c2.4-0.9,4.9-2.6,7-2.2
		c-3.2-0.5-6.2-1.4-9.1-2.6L59.5,79.7z"/>
	<path fill="#FFFFFF" d="M593.1,177.7c-6.2-0.2-17.1-0.8-20.4-7c-3.4-6.4,6.6-13.6,10.6-16.8c6.4-5.2,12-12.7,6.3-20.5
		c-2.3-3.2-5.3-5.3-8.5-6.4v0c0,0-0.3-0.1-0.9-0.3c-0.9-0.3-1.9-0.5-2.8-0.7c-5.5-1.1-17.6-2.5-39.6-0.5l0,0
		c-11.1,0.5-22.9,1.7-32.4,4l-3.8,4.2c0,0-0.1,0-0.1,0c-4.5-0.3-9.3,4-13.8,3.7c3.4,0.2,6.8,0.4,10.2,0.4l-0.9,1l3.5,3.2
		c0,0,24.3-6.5,45.3-9.5c0.7-0.1,1.5-0.2,2.2-0.3c0.1,0,0.1,0,0.2,0c15.6-2,22.8,0.8,26,3c0.2,0.2,0.4,0.3,0.6,0.5
		c15,14.2-15.8,24.1-15.9,37.1c-0.1,7.2,13.9,7.9,18.6,8.4c9.1,0.9,18.4-0.3,27.5-1.4c4.7-0.5,9.1-3.2,13.8-3.7
		C610.1,177.2,601.6,178,593.1,177.7z"/>
	<path fill="#FFFFFF" d="M476.4,122.4c0,0,4.4,9.8,36.9,5.5l-2.9,3.9l-35.5-2.6L476.4,122.4z"/>
	<polygon fill="#FFFFFF" points="544.8,122.6 543.7,104.9 554.7,104.3 553,122 	"/>
	<polygon fill="#FFFFFF" points="575.3,123.1 576.7,112.9 583.7,114.2 580.6,124 	"/>
	<polyline fill="#009FD0" points="534.2,116.9 535.4,124.3 541.9,123.3 	"/>
	<path fill="#FFFFFF" d="M536.6,110.3l-5.7,7l2.4-0.2l0.7,6.4l7.9-0.8l-0.7-6.4l2.4-0.2L536.6,110.3z M537.2,121.1l-1.7,0.2
		l-0.2-1.7l1.7-0.2L537.2,121.1z M536.9,118.8l-1.7,0.2l-0.2-1.7l1.7-0.2L536.9,118.8z M539.9,120.8l-1.7,0.2l-0.2-1.7l1.7-0.2
		L539.9,120.8z M539.7,118.5l-1.7,0.2l-0.2-1.7l1.7-0.2L539.7,118.5z"/>
	<path fill="#FFFFFF" d="M569.7,113.2l-5,4.1l1.7,0.2L566,122l5.6,0.5l0.4-4.6l1.7,0.2L569.7,113.2z M568.6,120.9l-1.2-0.1l0.1-1.2
		l1.2,0.1L568.6,120.9z M568.7,119.2l-1.2-0.1l0.1-1.2l1.2,0.1L568.7,119.2z M570.5,121.1l-1.2-0.1l0.1-1.2l1.2,0.1L570.5,121.1z
		 M570.7,119.4l-1.2-0.1l0.1-1.2l1.2,0.1L570.7,119.4z"/>
	<polygon fill="#FFFFFF" points="555.9,121.6 562.3,121.9 564.3,110.1 556.6,109.9 	"/>
	<rect x="545.6" y="106.8" fill="#009FD0" width="7.2" height="1.4"/>
	<rect x="545.6" y="109.6" fill="#009FD0" width="7.2" height="1.4"/>
	<polygon fill="#FFFFFF" points="554.2,121.9 554.7,116.9 558,116.9 560.1,119.9 560.6,118.4 563.8,118.6 563.8,122.2 	"/>
	<path fill="#FFFFFF" d="M623.4,125.4c0,0-1.8,5.2-1.6,6.2c0.1,0.9,4.4,1.7,4.9,1.9l0,1l1.8,0.6c-0.5,2-0.7,4-0.7,4.9
		c-0.1,0.8,0,2.5,0.1,4.1l-0.1,0l0.4,9.1h0.4c0.2,1.9,0.3,3.7,0.5,4c0.2,0.6,1.4,6,1.7,7.6c-0.1,0-0.1,0-0.1,0.1
		c0,0.1,0,0.7-0.1,1.2c-0.2,0.2-0.3,0.8-0.3,0.8s-1.2,0.7-2.2,1c-1.1,0.4-1.4,1.1-1.3,1.7c0.1,0.6,3.6,0.4,4.2,0.4
		c0.3,0,0.2-0.2,0.5-0.2c0.3,0,0.4,0.2,0.4,0.2s2.2,0.3,2.5-0.3c0.3-0.7-0.1-2.9-0.1-2.9c0-0.3,0.4-0.7,0.4-0.7s-0.1-0.2-0.2-0.1
		c-0.1,0-0.2,0.2-0.2,0.2s0,0-0.1,0c0-0.5,0-1.2,0-1.3c0.1-0.2-0.1-0.3-0.1-0.3s0,0-0.1,0c-0.1-2.2-1.2-7.2-1.3-7.6
		c0-0.3-0.1-2.1,0-3.8h0.9c0,0-0.3-2.5,0.4-4.3c0.2-0.6,0.4-1.3,0.5-1.9c0.1-0.4,0.2-0.8,0.3-1.2c0.4-2.5-0.3-4.6-0.3-5.5
		c0-0.9,1.6-4.3,0.8-7.6c-0.5-2.1-0.1-2.8-0.3-3.1c0,0-0.1,0-0.3-0.1c0-0.4,0-0.9,0.1-1.4c0.7-0.6,2.7-2.4,3.1-3.4
		c0.7-2.1,0-7.1-5.1-6.9c-0.4-0.2-3.2-0.4-4,1.3c-0.5,1.1-0.8,1.8-0.4,3.1c0,0.5,0.1,1,0,1.2c0,0.1-0.1,0.1-0.1,0.2l0-1.5l-2.1-0.1
		l0-0.2l-0.2,0c0-0.1,0-0.2,0-0.2c0-0.4-0.6-0.5-0.7,0.1c0,0,0,0.1,0,0.1l-0.2,0c0-0.3,0-0.5-0.1-0.6c-0.2-0.1-0.5-0.2-0.6,0.2
		c0,0.1-0.1,0.2-0.1,0.4l-0.2,0c0-0.3-0.1-0.5-0.1-0.6c-0.1-0.2-0.6-0.3-0.6,0.1c0,0.1,0,0.3,0,0.4l-0.1,0l0-0.2c0,0,0-0.3-0.1-0.3
		c-0.1,0-0.3-0.1-0.4,0.5l-1.8-0.1l-0.1,2.8l1.7,0c0,0.1,0,0.1,0,0.2C623.2,125.2,623.4,125.4,623.4,125.4z M624.4,129.8l0.1-0.8
		l0,0l0.6-3.7l0.3-0.3c0.1-0.2,0.3-0.6,0.4-1l0.7,0l0-0.2l1.9-0.1c-0.2,0.2-0.4,0.3-0.4,0.4c0,0.2,0.1,0.5,0.3,0.6
		c0.2,0-0.1,0.8,0.1,0.8c0.2,0,0.1,0.1,0.1,0.1s-0.2,0.2-0.1,0.3c0.1,0.1-0.2,1.6,0.6,1.7c0.8,0.1,2,0.5,2.3,1.2
		c0.1,0.3,0,0.7-0.1,1.1l-4.1-0.2l-0.1,0.2L624.4,129.8z"/>
	<path fill="#FFFFFF" d="M23.2,15.8l1.2-1.4l1-1.1v-0.4c0,0-2.8-1.8-2.8-2.6s0.3-1.9,0.3-1.9l1.3-1.6c0,0,2.2-0.3,2.3-0.2
		C26.6,6.6,28,7.4,28,7.4l0.2,0.3v0.9l0.3,0.6l0.9,0.8l0.3,0.6l-0.5,0.5L29,12l-0.4,0.7l-0.5,0.5L28,13.8l0.6,1.6c0,0,0.9,2,0.9,2.1
		c0,0.1,0.3,1.4,0.3,1.4l0.6,1.5l0.3,1.1l3-2l0.8,0.5l1-1.2l-0.6-1.1l-0.1-0.8l3.4-4.5l2.1,0.3l1,1l-3.6,4.5l0.1,2L36.9,21l-0.4,0.2
		l0.3,0.8l-2.9,1.7l-1.7,1h-1.5l0.2,4.7v1l-0.5,0.5l0.1,6.9l0.3,6.2l0.9,5.4l0.7,1.6l1.9,0.3l2,0.1l-0.1,0.7l-1.7,1h-2.9L29,53.1
		L28.1,52l-0.9-4.6L27.1,42l-0.5-3.9L25.4,43L24,48.5l-0.5,1.8l0.1,1.5l1.1,1.9l0.2,1l-1.4,0.4l-2.1-1.7l-0.7-0.3L19.6,53l-1.1-1.5
		l1.2-2.5l1.2-3.4l0.6-4.1l0.7-4.6l0.2-1.9l-0.8-1.6v-1.6l0.2-1.2l-0.2-4.3l-0.1-2.7l0-1.4l0.3-2.7l0.7-1.6l0.5-1.3L23.2,15.8z"/>
	<polygon fill="#FFFFFF" points="832.8,165.3 802.4,165.3 805.9,171.2 837.6,171.2 	"/>
	<rect x="837.6" y="187.9" fill="#FFFFFF" width="8.6" height="15.5"/>
</g>
</svg>
